<?xml version="1.0" standalone="no"?>
<!DOCTYPE svg PUBLIC "-//W3C//DTD SVG 1.1//EN" "http://www.w3.org/Graphics/SVG/1.1/DTD/svg11.dtd" >
<svg xmlns="http://www.w3.org/2000/svg">
<metadata></metadata>
<defs>
<font id="bw_stretchblack" horiz-adv-x="819" >
<font-face units-per-em="2048" ascent="1638" descent="-410" />
<missing-glyph horiz-adv-x="346" />
<glyph unicode="&#xfb01;" horiz-adv-x="985" d="M14 1038v197h123v192q0 108 74 173t201 65q77 0 159 -29v-186q-66 12 -102 12q-84 0 -84 -73v-154h174v-197h-174v-1038h-248v1038h-123zM651 0v1235h248v-1235h-248zM651 1366v211h248v-211h-248z" />
<glyph unicode="&#xfb02;" horiz-adv-x="1003" d="M14 1038v197h123v192q0 108 74 173t201 65q77 0 159 -29v-186q-66 12 -102 12q-84 0 -84 -73v-154h174v-197h-174v-1038h-248v1038h-123zM645 205v1440h248v-1401q0 -62 45 -62q13 0 49 8v-180q-52 -30 -115 -30q-102 0 -164.5 63t-62.5 162z" />
<glyph horiz-adv-x="0" />
<glyph horiz-adv-x="682" />
<glyph unicode="&#xd;" horiz-adv-x="399" />
<glyph unicode=" "  horiz-adv-x="346" />
<glyph unicode="&#x09;" horiz-adv-x="346" />
<glyph unicode="&#xa0;" horiz-adv-x="346" />
<glyph unicode="!" horiz-adv-x="432" d="M92 0v211h248v-211h-248zM92 1024v621h248v-621l-53 -676h-144z" />
<glyph unicode="&#x22;" horiz-adv-x="624" d="M25 1645h245l-61 -406h-121zM352 1645h246l-61 -406h-123z" />
<glyph unicode="#" horiz-adv-x="1099" d="M39 303l16 197h158l18 256h-159l16 196h158l20 283h246l-20 -283h163l21 283h246l-21 -283h160l-17 -196h-157l-19 -256h160l-16 -197h-158l-23 -303h-245l22 303h-164l-22 -303h-246l23 303h-160zM459 500h164l18 256h-164z" />
<glyph unicode="$" d="M72 287v133l223 12v-166q0 -39 15.5 -58t51.5 -24v551l-176 226q-106 136 -106 301v96q0 155 65 226.5t217 78.5v125h91v-125q153 -7 216.5 -78t63.5 -227v-123l-221 -12v155q0 36 -14 55t-45 25v-430l178 -229q106 -136 106 -299v-213q0 -158 -64.5 -229t-219.5 -78 v-123h-91v123q-159 7 -224.5 78t-65.5 229zM303 1268q0 -78 49 -144l10 -16v350q-31 -6 -45 -25t-14 -55v-110zM453 184q33 6 48 25t15 57v228q0 69 -49 143l-14 18v-471z" />
<glyph unicode="%" horiz-adv-x="1550" d="M41 1128v228q0 165 70.5 237t238.5 72h4q171 0 241.5 -71t70.5 -238v-228q0 -167 -70.5 -238t-241.5 -71h-4q-169 0 -239 70.5t-70 238.5zM246 2l819 1643h240l-820 -1643h-239zM262 1118q0 -65 21.5 -87.5t66.5 -22.5h4q48 0 69 22.5t21 87.5v248q0 64 -21.5 87.5 t-68.5 23.5h-4q-45 0 -66.5 -23t-21.5 -88v-248zM883 289v227q0 167 71 238t240 71h4q171 0 241 -70.5t70 -238.5v-227q0 -167 -70.5 -238t-240.5 -71h-4q-171 0 -241 70.5t-70 238.5zM1104 279q0 -64 22.5 -87.5t67.5 -23.5h4q46 0 68 23.5t22 87.5v247q0 64 -21.5 87.5 t-68.5 23.5h-4q-45 0 -67.5 -23t-22.5 -88v-247z" />
<glyph unicode="&#x26;" horiz-adv-x="917" d="M70 287v395q0 144 94 207q-84 58 -84 182v287q0 165 73.5 236t249.5 71h5q177 0 250 -70t73 -237v-133l-248 -11v164q0 84 -75 84h-5q-75 0 -75 -84v-315q0 -84 75 -84h498v-197h-162v-495q0 -166 -73 -236.5t-250 -70.5h-21q-178 0 -250 69.5t-75 237.5zM317 266 q0 -84 78 -84h21q37 0 56.5 18.5t19.5 65.5v516h-97q-78 0 -78 -86v-430z" />
<glyph unicode="'" horiz-adv-x="296" d="M25 1645h245l-61 -406h-121z" />
<glyph unicode="(" horiz-adv-x="491" d="M51 610q0 305 69 572.5t204 462.5h174q-112 -224 -151.5 -466t-39.5 -561q0 -332 41 -572t150 -458h-174q-273 402 -273 1022z" />
<glyph unicode=")" horiz-adv-x="491" d="M-6 -412q109 218 149.5 457.5t40.5 572.5q0 320 -39 562t-151 465h176q133 -195 201.5 -462.5t68.5 -572.5q0 -620 -270 -1022h-176z" />
<glyph unicode="*" horiz-adv-x="606" d="M39 1395l49 151l156 -76l-21 175h158l-23 -175l160 76l47 -157l-164 -29l125 -133l-131 -94l-94 167l-92 -167l-131 94l129 133z" />
<glyph unicode="+" d="M86 518v197h201v227h245v-227h201v-197h-201v-221h-245v221h-201z" />
<glyph unicode="," horiz-adv-x="378" d="M53 0v238h273v-226l-142 -239h-114l102 227h-119z" />
<glyph unicode="-" horiz-adv-x="612" d="M76 518v197h461v-197h-461z" />
<glyph unicode="." horiz-adv-x="374" d="M51 0v238h273v-238h-273z" />
<glyph unicode="/" horiz-adv-x="718" d="M31 0l409 1645h246l-410 -1645h-245z" />
<glyph unicode="0" d="M84 287v1071q0 165 74 236t250 71h4q177 0 250 -70t73 -237v-1071q0 -166 -73 -236.5t-250 -70.5h-4q-178 0 -251 70t-73 237zM332 266q0 -84 76 -84h4q37 0 56 18.5t19 65.5v1112q0 84 -75 84h-4q-76 0 -76 -84v-1112z" />
<glyph unicode="1" d="M90 0v197h232v1138l-211 -96v209l338 197h120v-1448h189v-197h-668z" />
<glyph unicode="2" d="M57 0v252q0 162 136 346l253 344q43 62 43 180v256q0 84 -75 84h-2q-78 0 -78 -84v-250l-246 13v217q0 167 73 237t251 70h2q176 0 249.5 -71t73.5 -236v-268q0 -96 -36.5 -178.5t-98.5 -168.5l-254 -344q-43 -62 -43 -178v-24h453v-197h-701z" />
<glyph unicode="3" d="M74 281v208l248 13v-234q0 -86 75 -86h6q78 0 78 84v449q0 96 -78 96h-245v96l303 541h-371v197h653v-97l-313 -559h23q276 0 276 -268v-434q0 -167 -73.5 -237t-252.5 -70h-6q-177 0 -250 70t-73 231z" />
<glyph unicode="4" d="M45 313v191l285 1141h309v-1135h137v-197h-137v-313h-248l2 313h-348zM260 510h150l22 680l6 190l-43 -190z" />
<glyph unicode="5" d="M78 287v159l248 3v-183q0 -47 19.5 -65.5t57.5 -18.5h9q75 0 75 84v463q0 111 -65 111h-8q-75 0 -88 -113l-236 4l16 914h627v-197h-379l-18 -485q69 79 162 79h8q104 0 166.5 -78t62.5 -235v-442q0 -167 -73 -237t-250 -70h-9q-179 0 -252 70t-73 237z" />
<glyph unicode="6" d="M94 287v1071q0 167 73 237t251 70h2q177 0 250 -72t73 -241v-129l-247 -13v162q0 50 -19.5 70t-56.5 20h-2q-76 0 -76 -84v-434q71 88 170 88h8q104 0 167 -78t63 -235v-432q0 -167 -73 -237t-251 -70h-8q-178 0 -251 70t-73 237zM342 266q0 -47 19.5 -65.5t56.5 -18.5h8 q76 0 76 84v453q0 110 -66 110h-8q-39 0 -62.5 -34t-23.5 -107v-422z" />
<glyph unicode="7" d="M76 1448v197h669v-97l-329 -1548h-273l332 1448h-399z" />
<glyph unicode="8" d="M74 287v383q0 143 94 204q-84 58 -84 181v303q0 165 74 236t250 71h4q177 0 250 -70t73 -237v-303q0 -120 -84 -178q94 -61 94 -207v-383q0 -166 -73.5 -236.5t-251.5 -70.5h-21q-179 0 -252 70t-73 237zM322 266q0 -84 77 -84h21q78 0 78 84v410q0 47 -20 65.5t-58 18.5 h-21q-36 0 -56.5 -18.5t-20.5 -65.5v-410zM332 1049q0 -86 76 -86h4q75 0 75 86v329q0 84 -75 84h-4q-76 0 -76 -84v-329z" />
<glyph unicode="9" d="M70 1004v354q0 167 73 237t250 70h8q178 0 251 -70t73 -237v-1071q0 -167 -73 -237t-251 -70h-2q-177 0 -250 71.5t-73 241.5v190l248 13v-224q0 -51 19 -70.5t56 -19.5h2q76 0 76 84v512q-71 -88 -170 -88h-8q-104 0 -166.5 78.5t-62.5 235.5zM317 1004q0 -111 66 -111 h8q39 0 62.5 34t23.5 107v344q0 84 -76 84h-8q-76 0 -76 -84v-374z" />
<glyph unicode=":" horiz-adv-x="428" d="M78 0v238h272v-238h-272zM78 997v238h272v-238h-272z" />
<glyph unicode=";" horiz-adv-x="423" d="M76 0v238h272v-226l-141 -239h-115l103 227h-119zM76 997v238h272v-238h-272z" />
<glyph unicode="&#x3c;" d="M88 612l584 445v-266l-256 -179l256 -180v-266z" />
<glyph unicode="=" d="M86 313v197h647v-197h-647zM86 723v197h647v-197h-647z" />
<glyph unicode="&#x3e;" d="M147 170v266l256 178l-256 181v266l584 -447z" />
<glyph unicode="?" horiz-adv-x="735" d="M41 1229v129q0 167 73 237t251 70h4q176 0 249.5 -71t73.5 -236v-129q0 -188 -106 -299l-76 -82q-68 -76 -76 -143l-26 -357h-150l-37 404q-14 153 105 282l75 82q43 45 43 146v116q0 84 -75 84h-4q-78 0 -78 -84v-161zM213 0v211h248v-211h-248z" />
<glyph unicode="@" horiz-adv-x="1280" d="M88 -113v1461q0 165 74 236t250 71h450q178 0 251 -70t73 -237v-1348h-154l-57 121q-81 -141 -207 -141h-14q-104 0 -167 78t-63 235v649q0 157 63 235t167 78h14q95 0 170 -88v201q0 51 -19.5 70.5t-56.5 19.5h-450q-36 0 -56 -19.5t-20 -70.5v-1501q0 -50 20 -70 t56 -20h450v-197h-450q-178 0 -251 70t-73 237zM772 293q0 -111 74 -111h6q38 0 62 34.5t24 107.5v587q0 73 -24 107.5t-62 34.5h-6q-74 0 -74 -111v-649z" />
<glyph unicode="A" horiz-adv-x="794" d="M8 0l223 1645h332l223 -1645h-272l-25 295h-184l-24 -295h-273zM322 492h151l-57 675l-19 211l-18 -211z" />
<glyph unicode="B" horiz-adv-x="839" d="M92 0v1645h342q177 0 250.5 -70.5t73.5 -237.5v-213q0 -103 -27 -168t-88 -100q73 -32 106 -100t33 -181v-268q0 -166 -73.5 -236.5t-251.5 -70.5h-365zM340 197h117q78 0 78 82v376q0 46 -20.5 64t-57.5 18h-117v-540zM340 934h94q37 0 56.5 18.5t19.5 65.5v346 q0 47 -19.5 65.5t-56.5 18.5h-94v-514z" />
<glyph unicode="C" horiz-adv-x="759" d="M82 287v1071q0 165 72.5 236t240.5 71h4q169 0 240.5 -70.5t71.5 -236.5v-162l-248 -10v192q0 44 -18 64t-46 20h-4q-27 0 -46 -19.5t-19 -64.5v-1112q0 -45 19 -64.5t46 -19.5h8q66 0 66 84v201l248 -10v-170q0 -165 -72 -236t-242 -71h-8q-170 0 -241.5 70.5 t-71.5 236.5z" />
<glyph unicode="D" horiz-adv-x="837" d="M92 0v1645h338q177 0 250.5 -70.5t73.5 -237.5v-1030q0 -166 -73.5 -236.5t-250.5 -70.5h-338zM340 197h90q78 0 78 82v1085q0 47 -20 65.5t-58 18.5h-90v-1251z" />
<glyph unicode="E" horiz-adv-x="694" d="M92 0v1645h557v-197h-309v-500h268v-196h-268v-555h319v-197h-567z" />
<glyph unicode="F" horiz-adv-x="667" d="M92 0v1645h559v-197h-311v-518h270v-197h-270v-733h-248z" />
<glyph unicode="G" horiz-adv-x="815" d="M82 293v1065q0 165 75 236t253 71h4q180 0 253.5 -70t73.5 -237v-162l-247 -10v192q0 84 -80 84h-4q-80 0 -80 -84v-1085q0 -64 22.5 -87.5t59.5 -23.5q41 0 66.5 34t25.5 108v378h-84v197h332v-899h-154l-59 125q-83 -145 -213 -145h-9q-107 0 -171 78t-64 235z" />
<glyph unicode="H" horiz-adv-x="856" d="M92 0v1645h248v-734h176v734h248v-1645h-248v715h-176v-715h-248z" />
<glyph unicode="I" horiz-adv-x="432" d="M92 0v1645h248v-1645h-248z" />
<glyph unicode="J" horiz-adv-x="538" d="M16 6v187q60 -11 101 -11q86 0 86 74v1389h248v-1428q0 -109 -75 -173t-202 -64q-74 0 -158 26z" />
<glyph unicode="K" horiz-adv-x="843" d="M92 0v1645h248v-660l244 660h262l-285 -674l293 -971h-268l-183 752l-63 -181v-571h-248z" />
<glyph unicode="L" horiz-adv-x="659" d="M92 0v1645h248v-1448h305v-197h-553z" />
<glyph unicode="M" horiz-adv-x="1204" d="M92 0v1645h293l182 -928l35 -201l33 201l184 928h293v-1645h-246l23 764l12 342l-63 -342l-164 -758h-144l-163 758l-66 344l14 -344l23 -764h-246z" />
<glyph unicode="N" horiz-adv-x="878" d="M92 0v1645h213l205 -730l59 -235l-8 235l-22 730h247v-1645h-213l-215 758l-49 196l8 -196l23 -758h-248z" />
<glyph unicode="O" horiz-adv-x="839" d="M82 287v1071q0 165 76.5 236t259.5 71h4q185 0 260.5 -70t75.5 -237v-1071q0 -166 -76 -236.5t-260 -70.5h-4q-185 0 -260.5 70t-75.5 237zM330 266q0 -84 88 -84h4q88 0 88 84v1112q0 84 -88 84h-4q-88 0 -88 -84v-1112z" />
<glyph unicode="P" horiz-adv-x="794" d="M92 0v1645h336q179 0 252.5 -70.5t73.5 -237.5v-372q0 -166 -74 -237t-252 -71h-88v-657h-248zM340 854h88q37 0 57.5 18t20.5 64v428q0 47 -20 65.5t-58 18.5h-88v-594z" />
<glyph unicode="Q" horiz-adv-x="839" d="M82 287v1071q0 165 76.5 236t259.5 71h4q185 0 260.5 -70t75.5 -237v-1071q0 -122 -39.5 -191t-130.5 -96q24 -16 67 -16h11q46 0 92 12v-203q-24 -12 -84 -12q-81 0 -140.5 53.5t-95.5 145.5h-16h-4q-185 0 -260.5 70t-75.5 237zM330 266q0 -84 88 -84h4q88 0 88 84 v1112q0 84 -88 84h-4q-88 0 -88 -84v-1112z" />
<glyph unicode="R" horiz-adv-x="833" d="M92 0v1645h342q177 0 250.5 -70.5t73.5 -237.5v-268q0 -108 -31.5 -175.5t-99.5 -100.5q68 -30 95.5 -100.5t29.5 -200.5l10 -492h-246l-10 586q-1 55 -24 76.5t-66 21.5h-76v-684h-248zM340 881h94q76 0 76 82v401q0 47 -19.5 65.5t-56.5 18.5h-94v-567z" />
<glyph unicode="S" horiz-adv-x="763" d="M43 287v133l248 12v-166q0 -47 20 -65.5t58 -18.5h16q84 0 84 84v189q0 75 -49 143l-262 363q-107 152 -107 294v103q0 165 74.5 236t251.5 71h4q179 0 252.5 -70t73.5 -237v-123l-248 -12v155q0 84 -78 84h-4q-78 0 -78 -84v-116q0 -69 49 -138l262 -362 q107 -152 107 -301v-174q0 -167 -74.5 -237t-257.5 -70h-16q-179 0 -252.5 70.5t-73.5 236.5z" />
<glyph unicode="T" horiz-adv-x="718" d="M14 1448v197h222h247h222v-197h-222v-1448h-247v1448h-222z" />
<glyph unicode="U" horiz-adv-x="831" d="M88 287v1358h248v-1379q0 -84 78 -84h4q78 0 78 84v1379h247v-1358q0 -166 -73.5 -236.5t-251.5 -70.5h-4q-179 0 -252.5 70t-73.5 237z" />
<glyph unicode="V" horiz-adv-x="790" d="M12 1645h273l92 -1168l18 -227l19 227l92 1168h272l-217 -1645h-332z" />
<glyph unicode="W" horiz-adv-x="1269" d="M12 1645h273l77 -928l19 -297l29 297l102 928h248l102 -928l25 -297l22 297l78 928h273l-220 -1645h-305l-73 735l-27 307l-27 -307l-73 -735h-306z" />
<glyph unicode="X" horiz-adv-x="800" d="M-10 0l293 862l-283 783h272l129 -459l127 459h273l-281 -783l291 -862h-272l-138 504l-139 -504h-272z" />
<glyph unicode="Y" horiz-adv-x="708" d="M-4 1645h260l63 -496l35 -277l33 277l68 496h260l-236 -967v-678h-248v678z" />
<glyph unicode="Z" horiz-adv-x="696" d="M16 0v98l383 1350h-354v197h633v-99l-385 -1349h364v-197h-641z" />
<glyph unicode="[" horiz-adv-x="546" d="M102 -410v2055h422v-197h-174v-1661h174v-197h-422z" />
<glyph unicode="\" horiz-adv-x="718" d="M31 1645h248l409 -1645h-248z" />
<glyph unicode="]" horiz-adv-x="546" d="M25 -213h172v1661h-172v197h419v-2055h-419v197z" />
<glyph unicode="^" horiz-adv-x="747" d="M41 1036l334 629l334 -629h-242l-92 213l-92 -213h-242z" />
<glyph unicode="_" horiz-adv-x="1030" d="M29 0v197h972v-197h-972z" />
<glyph unicode="`" horiz-adv-x="505" d="M20 1604h256l148 -267h-170z" />
<glyph unicode="a" horiz-adv-x="817" d="M41 293q0 165 29.5 239t105.5 105l297 123v203q0 90 -80 90h-4q-76 0 -76 -90v-117l-247 12v84q0 172 77 242.5t273 70.5h4q299 0 299 -313v-698q0 -27 10 -44.5t29 -17.5q17 0 41 8v-180q-48 -30 -105 -30q-67 0 -116 41t-70 108q-83 -149 -211 -149h-14 q-105 0 -173.5 79t-68.5 234zM289 293q0 -111 84 -111h8q41 0 68.5 34.5t27.5 107.5v256l-149 -76q-28 -14 -33.5 -50t-5.5 -161z" />
<glyph unicode="b" horiz-adv-x="821" d="M86 0v1645h248v-478q71 88 170 88h14q104 0 167 -78t63 -235v-649q0 -157 -63 -235t-167 -78h-14q-126 0 -207 141l-57 -121h-154zM334 324q0 -142 86 -142h6q74 0 74 111v649q0 111 -74 111h-6q-86 0 -86 -142v-587z" />
<glyph unicode="c" horiz-adv-x="753" d="M74 287v661q0 165 72.5 236t240.5 71h4q169 0 240 -70.5t71 -236.5v-131l-247 -12v164q0 44 -18 64t-46 20h-4q-65 0 -65 -84v-703q0 -84 65 -84h8q64 0 64 84v166l248 -12v-133q0 -165 -72 -236t-240 -71h-8q-170 0 -241.5 70.5t-71.5 236.5z" />
<glyph unicode="d" horiz-adv-x="821" d="M74 293v649q0 157 62.5 235t166.5 78h14q99 0 170 -88v478h248v-1645h-151l-60 121q-81 -141 -207 -141h-14q-104 0 -166.5 78t-62.5 235zM322 293q0 -111 73 -111h6q86 0 86 142v587q0 142 -86 142h-6q-73 0 -73 -111v-649z" />
<glyph unicode="e" horiz-adv-x="788" d="M74 287v661q0 165 73.5 236t249.5 71h11q177 0 250 -70t73 -237v-399h-409v-283q0 -84 75 -84h11q37 0 56 18.5t19 65.5v125l248 -12v-92v-9q0 -158 -72 -227q-74 -71 -251 -71h-11q-177 0 -250 70t-73 237zM322 719h161v250q0 84 -75 84h-11q-75 0 -75 -84v-250z" />
<glyph unicode="f" horiz-adv-x="565" d="M14 1038v197h123v192q0 108 74 173t201 65q77 0 159 -29v-186q-66 12 -102 12q-84 0 -84 -73v-154h174v-197h-174v-1038h-248v1038h-123z" />
<glyph unicode="g" horiz-adv-x="847" d="M37 -197q0 139 104 236q-73 52 -73 172q0 119 84 223q-72 69 -72 236v278q0 165 73.5 236t249.5 71h5q89 0 165 -43q72 105 185 105h2q63 0 82 -12v-203q-43 12 -92 12h-9q-34 0 -53 -8q43 -68 43 -158v-278q0 -166 -73 -237t-250 -71h-5q-21 0 -84 5q-26 -47 -26 -88 q0 -32 16.5 -45t57.5 -13h184q144 0 218.5 -89t74.5 -253q0 -170 -94.5 -239.5t-335.5 -69.5q-196 0 -286.5 50.5t-90.5 182.5zM264 -121q0 -73 37.5 -92.5t140.5 -19.5q42 0 65 1.5t47 7.5t35 18t18 33t7 54q0 64 -25.5 91.5t-82.5 27.5h-203q-39 -55 -39 -121zM328 649 q0 -84 75 -84h5q37 0 56 18.5t19 65.5v320q0 84 -75 84h-5q-75 0 -75 -84v-320z" />
<glyph unicode="h" horiz-adv-x="829" d="M86 0v1645h248v-478q71 88 170 88h14q104 0 167 -78t63 -235v-942h-248v942q0 111 -74 111h-6q-86 0 -86 -142v-911h-248zM193 664v2v-2z" />
<glyph unicode="i" horiz-adv-x="419" d="M86 0v1235h248v-1235h-248zM86 1366v211h248v-211h-248z" />
<glyph unicode="j" horiz-adv-x="419" d="M-25 -219q40 -8 58 -8q26 0 39.5 17t13.5 44v1401h248v-1440q0 -99 -65.5 -162t-170.5 -63q-66 0 -123 31v180zM86 1366v211h248v-211h-248z" />
<glyph unicode="k" horiz-adv-x="784" d="M86 0v1645h248l-12 -871l192 461h260l-242 -487l273 -748h-266l-158 545l-57 -117l10 -428h-248z" />
<glyph unicode="l" horiz-adv-x="438" d="M80 205v1440h248v-1401q0 -62 45 -62q13 0 49 8v-180q-52 -30 -115 -30q-102 0 -164.5 63t-62.5 162z" />
<glyph unicode="m" horiz-adv-x="1267" d="M86 0v1235h154l59 -127q84 147 211 147h16q69 0 122 -34.5t81 -104.5q83 139 207 139h14q106 0 171 -78t65 -235v-942h-248v942q0 111 -76 111h-6q-41 0 -68.5 -34.5t-27.5 -107.5v-911h-248v942q0 111 -76 111h-6q-41 0 -68.5 -34.5t-27.5 -107.5v-911h-248zM618 664v2 v-2z" />
<glyph unicode="n" horiz-adv-x="829" d="M86 0v1235h154l57 -123q80 143 207 143h14q104 0 167 -78t63 -235v-942h-248v942q0 111 -74 111h-6q-86 0 -86 -142v-911h-248z" />
<glyph unicode="o" horiz-adv-x="800" d="M74 287v661q0 165 73.5 236t249.5 71h4q179 0 252.5 -70t73.5 -237v-661q0 -166 -73.5 -236.5t-252.5 -70.5h-4q-177 0 -250 70t-73 237zM322 266q0 -84 75 -84h4q78 0 78 84v703q0 84 -78 84h-4q-75 0 -75 -84v-703z" />
<glyph unicode="p" horiz-adv-x="821" d="M86 -410v1645h154l57 -123q80 143 207 143h14q104 0 167 -78t63 -235v-649q0 -157 -63 -235t-167 -78h-14q-99 0 -170 88v-478h-248zM334 324q0 -142 86 -142h6q74 0 74 111v649q0 111 -74 111h-6q-86 0 -86 -142v-587z" />
<glyph unicode="q" horiz-adv-x="821" d="M74 293v649q0 157 62.5 235t166.5 78h14q127 0 207 -143l60 123h151v-1645h-248v478q-71 -88 -170 -88h-14q-104 0 -166.5 78t-62.5 235zM322 293q0 -111 73 -111h6q86 0 86 142v587q0 142 -86 142h-6q-73 0 -73 -111v-649z" />
<glyph unicode="r" horiz-adv-x="620" d="M86 0v1235h154l57 -123q85 143 215 143h2q69 0 96 -12v-244q-54 13 -108 13h-8q-87 0 -123.5 -44.5t-36.5 -176.5v-791h-248z" />
<glyph unicode="s" horiz-adv-x="739" d="M45 287v94l248 12v-127q0 -84 67 -84h17q65 0 65 90v93q0 86 -51 116l-201 119q-70 43 -103.5 126t-33.5 175v41q0 169 73 241t243 72h4q170 0 241.5 -71.5t71.5 -241.5v-84l-248 -12v117q0 90 -65 90h-4q-68 0 -68 -90v-56q0 -86 53 -119l211 -124q125 -76 125 -293v-78 q0 -170 -71.5 -241.5t-241.5 -71.5h-17q-171 0 -243 71t-72 236z" />
<glyph unicode="t" horiz-adv-x="540" d="M14 1038v197h115v260h248v-260h135v-197h-135v-782q0 -74 59 -74q31 0 82 15v-187q-65 -30 -141 -30q-114 0 -181 64.5t-67 172.5v821h-115z" />
<glyph unicode="u" horiz-adv-x="833" d="M82 293v942h248v-942q0 -111 76 -111h6q40 0 64 34t24 108v911h248v-1235h-154l-57 123q-83 -143 -209 -143h-15q-105 0 -168 78t-63 235z" />
<glyph unicode="v" horiz-adv-x="778" d="M10 1235h269l83 -760l27 -235l27 235l84 760h266l-211 -1235h-332z" />
<glyph unicode="w" horiz-adv-x="1185" d="M10 1235h266l66 -766l20 -262l33 262l94 766h205l97 -766l30 -262l23 262l63 766h269l-183 -1235h-307l-76 621l-18 151l-17 -151l-77 -621h-305z" />
<glyph unicode="x" horiz-adv-x="768" d="M-4 0l262 668l-252 567h266l58 -191l53 -178l53 178l58 191h268l-254 -567l264 -668h-268l-66 236l-53 190l-53 -190l-70 -236h-266z" />
<glyph unicode="y" horiz-adv-x="765" d="M4 1235h268l84 -760l31 -307l25 307l82 760h266l-254 -1364q-29 -153 -91.5 -224t-189.5 -71q-78 0 -133 25v182q58 -4 88 -4q84 0 84 98q0 71 -14 131z" />
<glyph unicode="z" horiz-adv-x="692" d="M25 0v98l344 940h-324v197h606v-98l-346 -940h357v-197h-637z" />
<glyph unicode="{" horiz-adv-x="514" d="M49 520v195h2q78 0 78 84v544q0 165 74 236.5t250 71.5h22v-203h-22q-76 0 -76 -84v-559q0 -141 -60 -189q60 -48 60 -188v-557q0 -84 76 -84h22v-203h-22q-178 0 -251 70t-73 237v543q0 86 -78 86h-2z" />
<glyph unicode="|" horiz-adv-x="452" d="M102 -410v2055h248v-2055h-248z" />
<glyph unicode="}" horiz-adv-x="512" d="M39 -213h20q78 0 78 84v557q0 140 60 188q-60 45 -60 189v559q0 84 -78 84h-20v203h20q177 0 251.5 -71.5t74.5 -236.5v-544q0 -84 76 -84h2v-195h-2q-76 0 -76 -86v-543q0 -167 -73.5 -237t-252.5 -70h-20v203z" />
<glyph unicode="~" horiz-adv-x="655" d="M66 532v33q0 129 32 177.5t103 48.5h2q31 0 63.5 -13.5t51 -26t49.5 -36.5q58 -43 75 -43h2q23 0 31 11t8 38v47h105v-33q0 -130 -31.5 -175.5t-103.5 -45.5h-2q-29 0 -61 13t-51 25.5t-48 35.5q-53 43 -80 43h-2q-21 0 -29 -12t-8 -39v-48h-106z" />
<glyph unicode="&#xa1;" horiz-adv-x="415" d="M84 211l51 676h144l53 -676v-621h-248v621zM84 1024v211h248v-211h-248z" />
<glyph unicode="&#xa2;" horiz-adv-x="757" d="M57 430v375q0 155 64.5 226.5t216.5 78.5v125h90v-125q153 -7 217 -75t64 -218v-24l-222 -11v43q0 36 -14 55t-45 25v-573q32 8 48 30t16 48v45l223 -13v-24q0 -150 -65.5 -219t-221.5 -76v-123h-90v125q-153 7 -217 78t-64 227zM279 410q0 -36 14 -55t45 -25v575 q-59 -14 -59 -80v-415z" />
<glyph unicode="&#xa3;" d="M33 0v197h94v514h-94v196h94v451q0 165 74 236t250 71h4q177 0 250 -70t73 -237v-162l-248 -10v192q0 84 -75 84h-4q-78 0 -78 -84v-471h256v-196h-256v-514h420v-197h-760z" />
<glyph unicode="&#xa4;" horiz-adv-x="870" d="M47 541l86 84q-31 63 -31 176v16q0 109 29 174l-84 84l158 160l117 -117q49 6 112 6h4q62 0 111 -6l117 117l157 -160l-84 -84q29 -65 29 -174v-16q0 -109 -29 -174l84 -86l-157 -160l-119 121q-44 -8 -109 -8h-4q-67 0 -108 8l-121 -121zM348 780q0 -84 86 -84h4 q84 0 84 84v58q0 84 -84 84h-4q-41 0 -63.5 -18.5t-22.5 -65.5v-58z" />
<glyph unicode="&#xa5;" d="M51 1645h260l64 -496l35 -272l32 272l66 496h260l-195 -803h136v-185h-177v-59h177v-184h-177v-414h-245v414h-174v184h174v59h-174v185h133z" />
<glyph unicode="&#xa6;" horiz-adv-x="452" d="M102 -410v822h248v-822h-248zM102 821v824h248v-824h-248z" />
<glyph unicode="&#xa7;" horiz-adv-x="796" d="M63 -35l248 12v-120q0 -47 20 -65.5t58 -18.5h17q36 0 55.5 20t19.5 70v184v13v13.5t-0.5 12t-1 13t-2 11.5t-3.5 11.5t-5 10t-7 10t-9.5 8t-12.5 8.5l-268 149q-29 15 -49 38t-30 43.5t-15 56t-5.5 57.5t-0.5 66v12v608v37v127q0 170 73.5 241.5t251.5 71.5h4 q178 0 251 -71t73 -242v-84l-248 -13v117q0 50 -19.5 70t-56.5 20h-4q-37 0 -57.5 -20t-20.5 -70v-168v-9q0 -21 1 -32t7 -28.5t22 -31.5t42 -28l240 -129q21 -11 36.5 -26.5t26 -29.5t17.5 -36t10.5 -37t5.5 -42.5t2 -43v-46.5v-13v-600v-45v-144q0 -171 -72.5 -242 t-250.5 -71h-17q-179 0 -252.5 70.5t-73.5 236.5v88zM307 559q0 -73 55 -110l132 -74v317q0 40 -14.5 68.5t-57.5 52.5l-115 64v-318z" />
<glyph unicode="&#xa8;" horiz-adv-x="686" d="M51 1366v211h248v-211h-248zM387 1366v211h248v-211h-248z" />
<glyph unicode="&#xa9;" horiz-adv-x="1703" d="M88 299v1044q0 168 74 240t250 72h880q178 0 251 -71t73 -241v-1044q0 -167 -73.5 -238t-250.5 -71h-880q-178 0 -251 70.5t-73 238.5zM336 281q0 -53 20 -74t56 -21h880q37 0 56.5 21t19.5 74v1083q0 53 -19.5 73.5t-56.5 20.5h-880q-37 0 -56.5 -20t-19.5 -74v-1083z M524 696v252q0 165 74 236t250 71h4q177 0 250.5 -67.5t73.5 -226.5v-25l-248 -10v43q0 84 -76 84h-4q-78 0 -78 -84v-293q0 -84 78 -84h8q37 0 56.5 18.5t19.5 65.5v45l248 -12v-25q0 -158 -73.5 -226.5t-250.5 -68.5h-8q-178 0 -251 70t-73 237z" />
<glyph unicode="&#xaa;" horiz-adv-x="608" d="M61 575v140h478v-140h-478zM76 1034v45q0 152 88 185l192 77v107q0 51 -51 51h-2q-22 0 -32.5 -10t-10.5 -41v-59h-172v63q0 113 51.5 159t182.5 46h4q200 0 200 -205v-612h-106l-25 53q-50 -66 -129 -66h-16q-78 0 -126 50t-48 157zM246 1038q0 -53 57 -53h4 q11 0 28.5 10t22.5 27v176l-90 -41q-14 -7 -18 -24.5t-4 -57.5v-37z" />
<glyph unicode="&#xab;" horiz-adv-x="999" d="M18 627l330 465l158 -156l-232 -309l232 -314l-158 -153zM473 627l330 465l158 -156l-232 -309l232 -314l-158 -153z" />
<glyph unicode="&#xac;" d="M82 518v197h399h248v-449h-248v252h-399z" />
<glyph unicode="&#xad;" horiz-adv-x="612" d="M76 518v197h461v-197h-461z" />
<glyph unicode="&#xae;" horiz-adv-x="1703" d="M88 299v1044q0 168 74 240t250 72h880q178 0 251 -71t73 -241v-1044q0 -167 -73.5 -238t-250.5 -71h-880q-178 0 -251 70.5t-73 238.5zM336 281q0 -53 20 -74t56 -21h880q37 0 56.5 21t19.5 74v1083q0 53 -19.5 73.5t-56.5 20.5h-880q-37 0 -56.5 -20t-19.5 -74v-1083z M530 412v526v2v291h312q182 0 257 -58t75 -194q0 -146 -127 -207q72 -25 103 -86t34 -164l4 -110h-248l-4 141q-3 69 -33 95t-80 26h-45v-262h-248zM778 856h64q35 0 56.5 23t21.5 67v2q0 40 -21.5 63t-56.5 23h-64v-178zM1174 979h2v-2z" />
<glyph unicode="&#xaf;" horiz-adv-x="512" d="M25 1393v196h462v-196h-462z" />
<glyph unicode="&#xb0;" horiz-adv-x="518" d="M25 1419q0 111 69 178.5t166 67.5q95 0 164.5 -67.5t69.5 -178.5q0 -114 -69 -182t-165 -68q-97 0 -166 68t-69 182zM168 1419q0 -58 28 -86t64 -28q35 0 62.5 28.5t27.5 85.5q0 55 -28 83t-62 28q-36 0 -64 -28t-28 -83z" />
<glyph unicode="&#xb1;" d="M86 109v196h647v-196h-647zM86 723v197h201v227h245v-227h201v-197h-201v-221h-245v221h-201z" />
<glyph unicode="&#xb2;" horiz-adv-x="645" d="M63 1128v164q0 61 25.5 106.5t83.5 86.5l168 114q22 13 27.5 25.5t5.5 40.5q0 24 -13 32.5t-38 8.5q-56 0 -56 -37v-20h-198v26q0 102 57 148.5t192 46.5h5q135 0 192 -47.5t57 -153.5v-14q0 -67 -19 -102t-75 -72l-180 -115q-22 -15 -28.5 -28.5t-6.5 -41.5v-12h326 v-156h-525z" />
<glyph unicode="&#xb3;" horiz-adv-x="645" d="M59 1315v45h199v-29q0 -61 59 -61q27 0 40.5 16.5t13.5 44.5v39q0 62 -54 62h-194v75l178 187h-229v155h508v-73l-189 -203q91 -6 134.5 -48t43.5 -126v-78q0 -117 -56.5 -165t-195.5 -48h-4q-140 0 -197 48t-57 159zM356 1573h11h-11z" />
<glyph unicode="&#xb4;" horiz-adv-x="505" d="M82 1337l149 267h254l-233 -267h-170z" />
<glyph unicode="&#xb6;" horiz-adv-x="1132" d="M43 1135v202q0 168 71.5 238t252.5 70h735v-197h-148v-1858h-247v1858h-93v-1858h-247v1237q-177 0 -250.5 71t-73.5 237z" />
<glyph unicode="&#xb7;" horiz-adv-x="399" d="M63 504v237h273v-237h-273z" />
<glyph unicode="&#xb8;" horiz-adv-x="395" d="M55 -125l70 152h151l-47 -99q117 -20 117 -155v-6q0 -95 -46.5 -139t-154.5 -44q-47 0 -77 13v127q40 -7 63 -7q62 0 62 50v8q0 19 -12.5 31t-33.5 12h-92v57z" />
<glyph unicode="&#xb9;" horiz-adv-x="645" d="M80 1124v156h182v360l-176 -69v141l279 137h88v-569h141v-156h-514z" />
<glyph unicode="&#xba;" horiz-adv-x="608" d="M68 575v140h477v-140h-477zM90 1034v430q0 107 49 153t166 46h2q118 0 165.5 -45.5t47.5 -153.5v-430q0 -108 -47.5 -153t-165.5 -45h-2q-119 0 -167 45t-48 153zM260 1038q0 -27 11.5 -37t33.5 -10h2q21 0 32 10t11 37v422q0 27 -11 37t-32 10h-2q-22 0 -33.5 -10 t-11.5 -37v-422z" />
<glyph unicode="&#xbb;" horiz-adv-x="999" d="M39 313l231 314l-231 309l158 156l329 -465l-329 -467zM494 313l231 314l-231 309l159 156l328 -465l-328 -467z" />
<glyph unicode="&#xbc;" horiz-adv-x="1392" d="M80 913v156h182v361l-176 -70v141l279 137h88v-569h141v-156h-514zM188 0l820 1645h194l-819 -1645h-195zM795 90v152l202 475h250v-471h96v-156h-96v-98h-198l-2 98h-252zM967 246h98l14 313z" />
<glyph unicode="&#xbd;" horiz-adv-x="1392" d="M80 913v156h182v361l-176 -70v141l279 137h88v-569h141v-156h-514zM188 0l820 1645h194l-819 -1645h-195zM811 -4v164q0 60 25.5 105.5t83.5 86.5l167 115q22 13 27.5 25t5.5 40q0 24 -13 32.5t-38 8.5q-55 0 -55 -36v-21h-199v27q0 102 57 148t193 46h4q135 0 192.5 -47 t57.5 -153v-15q0 -67 -19 -102t-75 -72l-181 -115q-21 -15 -27.5 -28t-6.5 -41v-12h325v-156h-524z" />
<glyph unicode="&#xbe;" horiz-adv-x="1392" d="M59 1104v45h199v-29q0 -61 59 -61q27 0 40.5 16.5t13.5 44.5v39q0 62 -54 62h-194v75l178 187h-229v155h508v-73l-189 -205q91 -5 134.5 -46.5t43.5 -125.5v-78q0 -117 -56.5 -165t-195.5 -48h-4q-140 0 -197 48t-57 159zM188 0l820 1645h194l-819 -1645h-195zM356 1362 h11h-11zM795 90v152l202 475h250v-471h96v-156h-96v-98h-198l-2 98h-252zM967 246h98l14 313z" />
<glyph unicode="&#xbf;" horiz-adv-x="724" d="M39 6q0 188 106 299l76 82q69 77 76 143l25 357h151l37 -404q14 -154 -104 -282l-76 -82q-43 -45 -43 -146v-116q0 -48 19.5 -66t55.5 -18h5q37 0 56 18.5t19 65.5v161l248 -12v-129q0 -167 -73 -237t-250 -70h-5q-176 0 -249.5 71t-73.5 236v129zM270 1024v211h248v-211 h-248z" />
<glyph unicode="&#xc0;" horiz-adv-x="794" d="M8 0l223 1645h332l223 -1645h-272l-25 295h-184l-24 -295h-273zM113 2013h254l149 -266h-170zM322 492h151l-57 675l-19 211l-18 -211z" />
<glyph unicode="&#xc1;" horiz-adv-x="794" d="M8 0l223 1645h332l223 -1645h-272l-25 295h-184l-24 -295h-273zM274 1747l150 266h254l-234 -266h-170zM322 492h151l-57 675l-19 211l-18 -211z" />
<glyph unicode="&#xc2;" horiz-adv-x="794" d="M8 0l223 1645h332l223 -1645h-272l-25 295h-184l-24 -295h-273zM121 1747l147 266h256l150 -266h-170l-107 156l-108 -156h-168zM322 492h151l-57 675l-19 211l-18 -211z" />
<glyph unicode="&#xc3;" horiz-adv-x="794" d="M8 0l223 1645h332l223 -1645h-272l-25 295h-184l-24 -295h-273zM131 1761v33q0 129 32 177t103 48h2q66 0 162 -75q58 -43 78 -43h2q21 0 29 11t8 38v47h106v-33q0 -130 -31.5 -175.5t-103.5 -45.5h-2q-31 0 -63.5 13.5t-50.5 25.5t-48 35q-53 43 -78 43h-2 q-22 0 -30 -12t-8 -40v-47h-105zM322 492h151l-57 675l-19 211l-18 -211z" />
<glyph unicode="&#xc4;" horiz-adv-x="794" d="M8 0l223 1645h332l223 -1645h-272l-25 295h-184l-24 -295h-273zM104 1741v211h248v-211h-248zM322 492h151l-57 675l-19 211l-18 -211zM440 1741v211h248v-211h-248z" />
<glyph unicode="&#xc5;" horiz-adv-x="794" d="M8 0l223 1645h332l223 -1645h-272l-25 295h-184l-24 -295h-273zM166 1927q0 112 69 179t166 67q94 0 163 -67t69 -179t-69 -180t-163 -68q-97 0 -166 67.5t-69 180.5zM309 1927q0 -56 28 -84t64 -28q33 0 60.5 28t27.5 84t-27.5 84.5t-60.5 28.5q-36 0 -64 -28.5 t-28 -84.5zM322 492h151l-57 675l-19 211l-18 -211z" />
<glyph unicode="&#xc6;" horiz-adv-x="1032" d="M-18 0l342 1645h663v-197h-321l26 -500h254v-196h-244l29 -555h266v-197h-516l-8 295h-170l-49 -295h-272zM336 492h133l-16 708z" />
<glyph unicode="&#xc7;" horiz-adv-x="759" d="M82 287v1071q0 165 72.5 236t240.5 71h4q169 0 240.5 -70.5t71.5 -236.5v-162l-248 -10v192q0 44 -18 64t-46 20h-4q-27 0 -46 -19.5t-19 -64.5v-1112q0 -45 19 -64.5t46 -19.5h8q66 0 66 84v201l248 -10v-170q0 -145 -55 -216.5t-181 -86.5l-26 -56q116 -23 116 -155v-6 q0 -96 -46 -139.5t-154 -43.5q-48 0 -78 13v127q40 -7 63 -7q62 0 62 50v8q0 19 -12 31t-33 12h-92v57l49 107q-133 12 -190.5 83.5t-57.5 221.5z" />
<glyph unicode="&#xc8;" horiz-adv-x="694" d="M92 0v1645h557v-197h-309v-500h268v-196h-268v-555h319v-197h-567zM109 2013h253l150 -266h-170z" />
<glyph unicode="&#xc9;" horiz-adv-x="694" d="M92 0v1645h557v-197h-309v-500h268v-196h-268v-555h319v-197h-567zM223 1747l150 266h254l-234 -266h-170z" />
<glyph unicode="&#xca;" horiz-adv-x="694" d="M92 0v1645h557v-197h-309v-500h268v-196h-268v-555h319v-197h-567zM102 1747l148 266h256l149 -266h-170l-106 156l-109 -156h-168z" />
<glyph unicode="&#xcb;" horiz-adv-x="694" d="M86 1741v211h248v-211h-248zM92 0v1645h557v-197h-309v-500h268v-196h-268v-555h319v-197h-567zM422 1741v211h248v-211h-248z" />
<glyph unicode="&#xcc;" horiz-adv-x="432" d="M-41 2013h254l149 -266h-169zM92 0v1645h248v-1645h-248z" />
<glyph unicode="&#xcd;" horiz-adv-x="432" d="M68 1747l149 266h254l-233 -266h-170zM92 0v1645h248v-1645h-248z" />
<glyph unicode="&#xce;" horiz-adv-x="432" d="M-59 1747l147 266h256l150 -266h-170l-107 156l-108 -156h-168zM92 0v1645h248v-1645h-248z" />
<glyph unicode="&#xcf;" horiz-adv-x="432" d="M-76 1741v211h248v-211h-248zM92 0v1645h248v-1645h-248zM260 1741v211h248v-211h-248z" />
<glyph unicode="&#xd0;" horiz-adv-x="839" d="M23 752v196h71v697h338q179 0 252.5 -70.5t73.5 -237.5v-1030q0 -166 -73.5 -236.5t-252.5 -70.5h-338v752h-71zM342 197h90q78 0 78 82v1085q0 47 -20 65.5t-58 18.5h-90v-500h74v-196h-74v-555z" />
<glyph unicode="&#xd1;" horiz-adv-x="878" d="M92 0v1645h213l205 -730l59 -235l-8 235l-22 730h247v-1645h-213l-215 758l-49 196l8 -196l23 -758h-248zM178 1761v33q0 129 32 177t103 48h2q66 0 162 -75q58 -43 78 -43h2q21 0 29 11t8 38v47h106v-33q0 -130 -31.5 -175.5t-103.5 -45.5h-2q-31 0 -63.5 13.5 t-50.5 25.5t-48 35q-53 43 -77 43h-2q-22 0 -30.5 -12t-8.5 -40v-47h-105z" />
<glyph unicode="&#xd2;" horiz-adv-x="839" d="M82 287v1071q0 165 76.5 236t259.5 71h4q185 0 260.5 -70t75.5 -237v-1071q0 -166 -76 -236.5t-260 -70.5h-4q-185 0 -260.5 70t-75.5 237zM135 2013h254l150 -266h-170zM330 266q0 -84 88 -84h4q88 0 88 84v1112q0 84 -88 84h-4q-88 0 -88 -84v-1112z" />
<glyph unicode="&#xd3;" horiz-adv-x="839" d="M82 287v1071q0 165 76.5 236t259.5 71h4q185 0 260.5 -70t75.5 -237v-1071q0 -166 -76 -236.5t-260 -70.5h-4q-185 0 -260.5 70t-75.5 237zM315 1747l150 266h254l-234 -266h-170zM330 266q0 -84 88 -84h4q88 0 88 84v1112q0 84 -88 84h-4q-88 0 -88 -84v-1112z" />
<glyph unicode="&#xd4;" horiz-adv-x="839" d="M82 287v1071q0 165 76.5 236t259.5 71h4q185 0 260.5 -70t75.5 -237v-1071q0 -166 -76 -236.5t-260 -70.5h-4q-185 0 -260.5 70t-75.5 237zM143 1747l148 266h256l149 -266h-170l-106 156l-109 -156h-168zM330 266q0 -84 88 -84h4q88 0 88 84v1112q0 84 -88 84h-4 q-88 0 -88 -84v-1112z" />
<glyph unicode="&#xd5;" horiz-adv-x="839" d="M82 287v1071q0 165 76.5 236t259.5 71h4q185 0 260.5 -70t75.5 -237v-1071q0 -166 -76 -236.5t-260 -70.5h-4q-185 0 -260.5 70t-75.5 237zM160 1761v33q0 129 32 177t103 48h2q66 0 162 -75q58 -43 78 -43h2q21 0 28.5 11t7.5 38v47h107v-33q0 -130 -31.5 -175.5 t-103.5 -45.5h-2q-31 0 -63.5 13.5t-50.5 25.5t-48 35q-53 43 -78 43h-2q-22 0 -30.5 -12t-8.5 -40v-47h-104zM330 266q0 -84 88 -84h4q88 0 88 84v1112q0 84 -88 84h-4q-88 0 -88 -84v-1112z" />
<glyph unicode="&#xd6;" horiz-adv-x="839" d="M82 287v1071q0 165 76.5 236t259.5 71h4q185 0 260.5 -70t75.5 -237v-1071q0 -166 -76 -236.5t-260 -70.5h-4q-185 0 -260.5 70t-75.5 237zM129 1741v211h248v-211h-248zM330 266q0 -84 88 -84h4q88 0 88 84v1112q0 84 -88 84h-4q-88 0 -88 -84v-1112zM465 1741v211h248 v-211h-248z" />
<glyph unicode="&#xd7;" d="M96 471l146 145l-146 146l168 168l146 -146l145 146l168 -168l-145 -146l145 -145l-168 -168l-145 146l-146 -146z" />
<glyph unicode="&#xd8;" horiz-adv-x="839" d="M45 0l55 170q-18 62 -18 141v1047q0 165 76.5 236t259.5 71h4q162 0 246 -72l18 52h82l-43 -132q33 -67 33 -180v-1046q0 -166 -76 -236.5t-260 -70.5h-4q-184 0 -264 92l-27 -72h-82zM330 266q0 -84 88 -84h4q88 0 88 84v729l-180 -526v-203zM330 733l180 527v118 q0 84 -88 84h-4q-88 0 -88 -84v-645z" />
<glyph unicode="&#xd9;" horiz-adv-x="831" d="M88 287v1358h248v-1379q0 -84 78 -84h4q78 0 78 84v1379h247v-1358q0 -166 -73.5 -236.5t-251.5 -70.5h-4q-179 0 -252.5 70t-73.5 237zM147 2013h254l150 -266h-170z" />
<glyph unicode="&#xda;" horiz-adv-x="831" d="M88 287v1358h248v-1379q0 -84 78 -84h4q78 0 78 84v1379h247v-1358q0 -166 -73.5 -236.5t-251.5 -70.5h-4q-179 0 -252.5 70t-73.5 237zM283 1747l149 266h254l-233 -266h-170z" />
<glyph unicode="&#xdb;" horiz-adv-x="831" d="M88 287v1358h248v-1379q0 -84 78 -84h4q78 0 78 84v1379h247v-1358q0 -166 -73.5 -236.5t-251.5 -70.5h-4q-179 0 -252.5 70t-73.5 237zM137 1747l148 266h256l149 -266h-170l-106 156l-109 -156h-168z" />
<glyph unicode="&#xdc;" horiz-adv-x="831" d="M88 287v1358h248v-1379q0 -84 78 -84h4q78 0 78 84v1379h247v-1358q0 -166 -73.5 -236.5t-251.5 -70.5h-4q-179 0 -252.5 70t-73.5 237zM123 1741v211h248v-211h-248zM459 1741v211h248v-211h-248z" />
<glyph unicode="&#xdd;" horiz-adv-x="708" d="M-4 1645h260l63 -496l35 -277l33 277l68 496h260l-236 -967v-678h-248v678zM262 1747l150 266h254l-234 -266h-170z" />
<glyph unicode="&#xde;" horiz-adv-x="790" d="M92 0v1645h248v-254h82q177 0 250 -70.5t73 -237.5v-370q0 -166 -73 -236.5t-250 -70.5h-82v-406h-248zM340 602h82q37 0 56.5 18.5t19.5 65.5v424q0 47 -20 66.5t-56 17.5h-82v-592z" />
<glyph unicode="&#xdf;" horiz-adv-x="929" d="M86 0v1436q0 102 75 165.5t201 63.5q76 0 158 -29v-186q-66 12 -100 12q-86 0 -86 -73v-154h534v-96l-151 -414q157 -43 157 -231v-271q0 -109 -74 -176t-200 -67q-77 0 -156 28v187q72 -13 99 -13q84 0 84 88v217q0 82 -76 82h-90v97l133 372h-260v-1038h-248z" />
<glyph unicode="&#xe0;" horiz-adv-x="817" d="M41 293q0 165 29.5 239t105.5 105l297 123v203q0 90 -80 90h-4q-76 0 -76 -90v-117l-247 12v84q0 172 77 242.5t273 70.5h4q299 0 299 -313v-698q0 -27 10 -44.5t29 -17.5q17 0 41 8v-180q-48 -30 -105 -30q-67 0 -116 41t-70 108q-83 -149 -211 -149h-14 q-105 0 -173.5 79t-68.5 234zM123 1604h254l149 -267h-170zM289 293q0 -111 84 -111h8q41 0 68.5 34.5t27.5 107.5v256l-149 -76q-28 -14 -33.5 -50t-5.5 -161z" />
<glyph unicode="&#xe1;" horiz-adv-x="817" d="M41 293q0 165 29.5 239t105.5 105l297 123v203q0 90 -80 90h-4q-76 0 -76 -90v-117l-247 12v84q0 172 77 242.5t273 70.5h4q299 0 299 -313v-698q0 -27 10 -44.5t29 -17.5q17 0 41 8v-180q-48 -30 -105 -30q-67 0 -116 41t-70 108q-83 -149 -211 -149h-14 q-105 0 -173.5 79t-68.5 234zM276 1337l150 267h254l-234 -267h-170zM289 293q0 -111 84 -111h8q41 0 68.5 34.5t27.5 107.5v256l-149 -76q-28 -14 -33.5 -50t-5.5 -161z" />
<glyph unicode="&#xe2;" horiz-adv-x="817" d="M41 293q0 165 29.5 239t105.5 105l297 123v203q0 90 -80 90h-4q-76 0 -76 -90v-117l-247 12v84q0 172 77 242.5t273 70.5h4q299 0 299 -313v-698q0 -27 10 -44.5t29 -17.5q17 0 41 8v-180q-48 -30 -105 -30q-67 0 -116 41t-70 108q-83 -149 -211 -149h-14 q-105 0 -173.5 79t-68.5 234zM117 1337l147 267h256l150 -267h-170l-107 156l-108 -156h-168zM289 293q0 -111 84 -111h8q41 0 68.5 34.5t27.5 107.5v256l-149 -76q-28 -14 -33.5 -50t-5.5 -161z" />
<glyph unicode="&#xe3;" horiz-adv-x="817" d="M41 293q0 165 29.5 239t105.5 105l297 123v203q0 90 -80 90h-4q-76 0 -76 -90v-117l-247 12v84q0 172 77 242.5t273 70.5h4q299 0 299 -313v-698q0 -27 10 -44.5t29 -17.5q17 0 41 8v-180q-48 -30 -105 -30q-67 0 -116 41t-70 108q-83 -149 -211 -149h-14 q-105 0 -173.5 79t-68.5 234zM133 1352v32q0 130 32 178t103 48h2q29 0 61 -13t51.5 -26.5t49.5 -36.5q58 -43 78 -43h2q21 0 29 11t8 38v47h106v-33q0 -130 -31.5 -175.5t-103.5 -45.5h-2q-31 0 -63.5 13.5t-50.5 25.5t-48 35q-53 43 -77 43h-3q-22 0 -30 -11.5t-8 -39.5 v-47h-105zM289 293q0 -111 84 -111h8q41 0 68.5 34.5t27.5 107.5v256l-149 -76q-28 -14 -33.5 -50t-5.5 -161z" />
<glyph unicode="&#xe4;" horiz-adv-x="817" d="M41 293q0 165 29.5 239t105.5 105l297 123v203q0 90 -80 90h-4q-76 0 -76 -90v-117l-247 12v84q0 172 77 242.5t273 70.5h4q299 0 299 -313v-698q0 -27 10 -44.5t29 -17.5q17 0 41 8v-180q-48 -30 -105 -30q-67 0 -116 41t-70 108q-83 -149 -211 -149h-14 q-105 0 -173.5 79t-68.5 234zM100 1366v211h248v-211h-248zM289 293q0 -111 84 -111h8q41 0 68.5 34.5t27.5 107.5v256l-149 -76q-28 -14 -33.5 -50t-5.5 -161zM436 1366v211h248v-211h-248z" />
<glyph unicode="&#xe5;" horiz-adv-x="817" d="M41 293q0 165 29.5 239t105.5 105l297 123v203q0 90 -80 90h-4q-76 0 -76 -90v-117l-247 12v84q0 172 77 242.5t273 70.5h4q299 0 299 -313v-698q0 -27 10 -44.5t29 -17.5q17 0 41 8v-180q-48 -30 -105 -30q-67 0 -116 41t-70 108q-83 -149 -211 -149h-14 q-105 0 -173.5 79t-68.5 234zM160 1518q0 112 69 178.5t166 66.5q95 0 163.5 -66.5t68.5 -178.5t-69 -180t-163 -68q-97 0 -166 67.5t-69 180.5zM289 293q0 -111 84 -111h8q41 0 68.5 34.5t27.5 107.5v256l-149 -76q-28 -14 -33.5 -50t-5.5 -161zM303 1518q0 -56 28 -84.5 t64 -28.5q33 0 60.5 28.5t27.5 84.5t-27.5 84t-60.5 28q-36 0 -64 -28t-28 -84z" />
<glyph unicode="&#xe6;" horiz-adv-x="1189" d="M43 299v61q0 127 31 197t104 94l297 105v207q0 90 -86 90h-4q-76 0 -76 -90v-117l-248 12v84q0 172 77.5 242.5t273.5 70.5h4q137 0 196 -73q57 73 187 73h8q179 0 252.5 -70t73.5 -237v-364h-412v-318q0 -84 78 -84h8q37 0 56.5 18.5t19.5 65.5v119l247 -25v-73 q0 -153 -80.5 -230t-195.5 -77h-8q-193 0 -256 129q-75 -129 -260 -129h-23q-121 0 -192.5 76.5t-71.5 242.5zM291 279q0 -53 26.5 -75t65.5 -22h8q21 0 49 16.5t39 43.5v338l-149 -60q-25 -10 -32 -40.5t-7 -98.5v-102zM721 754h164v215q0 84 -78 84h-8q-78 0 -78 -84v-215 z" />
<glyph unicode="&#xe7;" horiz-adv-x="753" d="M74 287v661q0 165 72.5 236t240.5 71h4q169 0 240 -70.5t71 -236.5v-131l-247 -12v164q0 44 -18 64t-46 20h-4q-65 0 -65 -84v-703q0 -84 65 -84h8q64 0 64 84v166l248 -12v-133q0 -144 -53.5 -216t-176.5 -87l-26 -56q116 -23 116 -155v-6q0 -96 -46 -139.5t-154 -43.5 q-48 0 -78 13v127q40 -7 63 -7q62 0 62 50v8q0 19 -12 31t-33 12h-93v57l50 107q-136 12 -194 83t-58 222z" />
<glyph unicode="&#xe8;" horiz-adv-x="788" d="M74 287v661q0 165 73.5 236t249.5 71h11q177 0 250 -70t73 -237v-399h-409v-283q0 -84 75 -84h11q37 0 56 18.5t19 65.5v125l248 -12v-92q2 -165 -72 -236t-251 -71h-11q-177 0 -250 70t-73 237zM166 1604h254l149 -267h-170zM322 719h161v250q0 84 -75 84h-11 q-75 0 -75 -84v-250z" />
<glyph unicode="&#xe9;" horiz-adv-x="788" d="M74 287v661q0 165 73.5 236t249.5 71h11q177 0 250 -70t73 -237v-399h-409v-283q0 -84 75 -84h11q37 0 56 18.5t19 65.5v125l248 -12v-92q2 -165 -72 -236t-251 -71h-11q-177 0 -250 70t-73 237zM274 1337l150 267h254l-234 -267h-170zM322 719h161v250q0 84 -75 84h-11 q-75 0 -75 -84v-250z" />
<glyph unicode="&#xea;" horiz-adv-x="788" d="M74 287v661q0 165 73.5 236t249.5 71h11q177 0 250 -70t73 -237v-399h-409v-283q0 -84 75 -84h11q37 0 56 18.5t19 65.5v125l248 -12v-92q2 -165 -72 -236t-251 -71h-11q-177 0 -250 70t-73 237zM125 1337l147 267h256l150 -267h-170l-107 156l-108 -156h-168zM322 719 h161v250q0 84 -75 84h-11q-75 0 -75 -84v-250z" />
<glyph unicode="&#xeb;" horiz-adv-x="788" d="M74 287v661q0 165 73.5 236t249.5 71h11q177 0 250 -70t73 -237v-399h-409v-283q0 -84 75 -84h11q37 0 56 18.5t19 65.5v125l248 -12v-92q2 -165 -72 -236t-251 -71h-11q-177 0 -250 70t-73 237zM111 1366v211h247v-211h-247zM322 719h161v250q0 84 -75 84h-11 q-75 0 -75 -84v-250zM446 1366v211h248v-211h-248z" />
<glyph unicode="&#xec;" horiz-adv-x="419" d="M-47 1604h254l149 -267h-170zM86 0v1235h248v-1235h-248z" />
<glyph unicode="&#xed;" horiz-adv-x="419" d="M63 1337l150 267h254l-234 -267h-170zM86 0v1235h248v-1235h-248z" />
<glyph unicode="&#xee;" horiz-adv-x="419" d="M-66 1337l148 267h256l147 -267h-168l-106 158l-109 -158h-168zM86 0v1235h248v-1235h-248z" />
<glyph unicode="&#xef;" horiz-adv-x="419" d="M-82 1366v211h248v-211h-248zM86 0v1235h248v-1235h-248zM254 1366v211h248v-211h-248z" />
<glyph unicode="&#xf0;" horiz-adv-x="817" d="M74 287v655q0 157 62.5 235t166.5 78h14q99 0 170 -88v207l-110 -78l-49 66l121 86q-31 14 -82 14q-68 0 -152 -32v186q103 49 209 49q147 0 233 -70l99 70l47 -68l-92 -63q24 -46 24 -98v-1149q0 -160 -80.5 -233.5t-242.5 -73.5h-15q-177 0 -250 70t-73 237zM322 266 q0 -84 75 -84h15q75 0 75 84v645q0 142 -86 142h-6q-73 0 -73 -111v-676z" />
<glyph unicode="&#xf1;" horiz-adv-x="829" d="M86 0v1235h154l57 -123q80 143 207 143h14q104 0 167 -78t63 -235v-942h-248v942q0 111 -74 111h-6q-86 0 -86 -142v-911h-248zM154 1352v32q0 130 32 178t103 48h2q29 0 61 -13t51.5 -26.5t49.5 -36.5q58 -43 77 -43h2q21 0 29 11t8 38v47h107v-33q0 -130 -31.5 -175.5 t-103.5 -45.5h-2q-31 0 -63.5 13.5t-50.5 25.5t-48 35q-53 43 -78 43h-2q-22 0 -30.5 -12t-8.5 -39v-47h-104z" />
<glyph unicode="&#xf2;" horiz-adv-x="800" d="M74 287v661q0 165 73.5 236t249.5 71h4q179 0 252.5 -70t73.5 -237v-661q0 -166 -73.5 -236.5t-252.5 -70.5h-4q-177 0 -250 70t-73 237zM139 1604h254l150 -267h-170zM322 266q0 -84 75 -84h4q78 0 78 84v703q0 84 -78 84h-4q-75 0 -75 -84v-703z" />
<glyph unicode="&#xf3;" horiz-adv-x="800" d="M74 287v661q0 165 73.5 236t249.5 71h4q179 0 252.5 -70t73.5 -237v-661q0 -166 -73.5 -236.5t-252.5 -70.5h-4q-177 0 -250 70t-73 237zM283 1337l149 267h254l-233 -267h-170zM322 266q0 -84 75 -84h4q78 0 78 84v703q0 84 -78 84h-4q-75 0 -75 -84v-703z" />
<glyph unicode="&#xf4;" horiz-adv-x="800" d="M74 287v661q0 165 73.5 236t249.5 71h4q179 0 252.5 -70t73.5 -237v-661q0 -166 -73.5 -236.5t-252.5 -70.5h-4q-177 0 -250 70t-73 237zM123 1337l147 267h256l150 -267h-170l-107 156l-108 -156h-168zM322 266q0 -84 75 -84h4q78 0 78 84v703q0 84 -78 84h-4 q-75 0 -75 -84v-703z" />
<glyph unicode="&#xf5;" horiz-adv-x="800" d="M74 287v661q0 165 73.5 236t249.5 71h4q179 0 252.5 -70t73.5 -237v-661q0 -166 -73.5 -236.5t-252.5 -70.5h-4q-177 0 -250 70t-73 237zM139 1352v32q0 130 32 178t103 48h2q29 0 61 -13t51.5 -26.5t49.5 -36.5q58 -43 78 -43h2q21 0 29 11t8 38v47h107v-33 q0 -130 -32 -175.5t-104 -45.5h-2q-31 0 -63.5 13.5t-50.5 25.5t-48 35q-53 43 -77 43h-2q-22 0 -30.5 -12t-8.5 -39v-47h-105zM322 266q0 -84 75 -84h4q78 0 78 84v703q0 84 -78 84h-4q-75 0 -75 -84v-703z" />
<glyph unicode="&#xf6;" horiz-adv-x="800" d="M74 287v661q0 165 73.5 236t249.5 71h4q179 0 252.5 -70t73.5 -237v-661q0 -166 -73.5 -236.5t-252.5 -70.5h-4q-177 0 -250 70t-73 237zM109 1366v211h247v-211h-247zM322 266q0 -84 75 -84h4q78 0 78 84v703q0 84 -78 84h-4q-75 0 -75 -84v-703zM444 1366v211h248v-211 h-248z" />
<glyph unicode="&#xf7;" d="M86 518v197h647v-197h-647zM272 78v241h275v-241h-275zM272 915v242h275v-242h-275z" />
<glyph unicode="&#xf8;" horiz-adv-x="800" d="M37 0l63 143q-26 65 -26 166v639q0 165 73.5 236t249.5 71h4q169 0 250 -84l31 64h84l-66 -143q27 -76 27 -166v-639q0 -166 -73.5 -236.5t-252.5 -70.5h-4q-170 0 -247 83l-31 -63h-82zM322 266q0 -84 75 -84h4q78 0 78 84v426l-157 -344v-82zM322 547l157 344v78 q0 84 -78 84h-4q-75 0 -75 -84v-422z" />
<glyph unicode="&#xf9;" horiz-adv-x="833" d="M82 293v942h248v-942q0 -111 76 -111h6q40 0 64 34t24 108v911h248v-1235h-154l-57 123q-83 -143 -209 -143h-15q-105 0 -168 78t-63 235zM141 1604h254l150 -267h-170z" />
<glyph unicode="&#xfa;" horiz-adv-x="833" d="M82 293v942h248v-942q0 -111 76 -111h6q40 0 64 34t24 108v911h248v-1235h-154l-57 123q-83 -143 -209 -143h-15q-105 0 -168 78t-63 235zM295 1337l149 267h254l-233 -267h-170z" />
<glyph unicode="&#xfb;" horiz-adv-x="833" d="M82 293v942h248v-942q0 -111 76 -111h6q40 0 64 34t24 108v911h248v-1235h-154l-57 123q-83 -143 -209 -143h-15q-105 0 -168 78t-63 235zM131 1337l148 267h256l149 -267h-170l-106 156l-109 -156h-168z" />
<glyph unicode="&#xfc;" horiz-adv-x="833" d="M82 293v942h248v-942q0 -111 76 -111h6q40 0 64 34t24 108v911h248v-1235h-154l-57 123q-83 -143 -209 -143h-15q-105 0 -168 78t-63 235zM117 1366v211h248v-211h-248zM453 1366v211h247v-211h-247z" />
<glyph unicode="&#xfd;" horiz-adv-x="765" d="M4 1235h268l84 -760l31 -307l25 307l82 760h266l-254 -1364q-29 -153 -91.5 -224t-189.5 -71q-78 0 -133 25v182q58 -4 88 -4q84 0 84 98q0 71 -14 131zM276 1337l150 267h254l-234 -267h-170z" />
<glyph unicode="&#xfe;" horiz-adv-x="821" d="M86 -410v2055h248v-478q71 88 170 88h14q104 0 167 -78t63 -235v-649q0 -157 -63 -235t-167 -78h-14q-99 0 -170 88v-478h-248zM334 324q0 -142 86 -142h6q74 0 74 111v649q0 111 -74 111h-6q-86 0 -86 -142v-587z" />
<glyph unicode="&#xff;" horiz-adv-x="765" d="M4 1235h268l84 -760l31 -307l25 307l82 760h266l-254 -1364q-29 -153 -91.5 -224t-189.5 -71q-78 0 -133 25v182q58 -4 88 -4q84 0 84 98q0 71 -14 131zM88 1366v211h248v-211h-248zM424 1366v211h248v-211h-248z" />
<glyph unicode="&#x152;" horiz-adv-x="999" d="M82 293v1059q0 157 63 235t166 78h15q117 0 196 -127l25 107h409v-197h-215v-500h174v-196h-174v-555h226v-197h-420l-27 100q-78 -120 -194 -120h-15q-103 0 -166 78t-63 235zM330 293q0 -111 71 -111h7q38 0 63 34.5t25 107.5v997q0 73 -25 107t-63 34h-7 q-71 0 -71 -110v-1059zM635 1073v2v-2z" />
<glyph unicode="&#x153;" horiz-adv-x="1193" d="M74 287v661q0 165 73.5 236t249.5 71h4q134 0 201 -73q70 73 201 73h8q179 0 252.5 -70t73.5 -237v-409h-410v-271q0 -86 76 -86h8q78 0 78 84v121l246 -10v-90q0 -166 -73.5 -236.5t-250.5 -70.5h-8q-136 0 -201 71q-65 -71 -201 -71h-4q-177 0 -250 70t-73 237z M322 266q0 -84 75 -84h4q78 0 78 86v697q0 88 -78 88h-4q-75 0 -75 -84v-703zM727 709h162v260q0 84 -78 84h-8q-76 0 -76 -88v-256z" />
<glyph unicode="&#x178;" horiz-adv-x="708" d="M-4 1645h260l63 -496l35 -277l33 277l68 496h260l-236 -967v-678h-248v678zM63 1741v211h248v-211h-248zM399 1741v211h248v-211h-248z" />
<glyph unicode="&#x2c6;" horiz-adv-x="716" d="M82 1337l147 267h256l150 -267h-170l-107 156l-108 -156h-168z" />
<glyph unicode="&#x2dc;" horiz-adv-x="741" d="M111 1352v32q0 130 32 178t103 48h2q29 0 61 -13t51.5 -26.5t49.5 -36.5q58 -43 77 -43h2q21 0 29 11t8 38v47h107v-33q0 -130 -31.5 -175.5t-103.5 -45.5h-2q-31 0 -63.5 13.5t-50.5 25.5t-48 35q-53 43 -78 43h-2q-22 0 -30.5 -12t-8.5 -39v-47h-104z" />
<glyph unicode="&#x2000;" horiz-adv-x="1086" />
<glyph unicode="&#x2001;" horiz-adv-x="2173" />
<glyph unicode="&#x2002;" horiz-adv-x="1086" />
<glyph unicode="&#x2003;" horiz-adv-x="2173" />
<glyph unicode="&#x2004;" horiz-adv-x="724" />
<glyph unicode="&#x2005;" horiz-adv-x="543" />
<glyph unicode="&#x2006;" horiz-adv-x="362" />
<glyph unicode="&#x2007;" horiz-adv-x="362" />
<glyph unicode="&#x2008;" horiz-adv-x="271" />
<glyph unicode="&#x2009;" horiz-adv-x="434" />
<glyph unicode="&#x200a;" horiz-adv-x="120" />
<glyph unicode="&#x2010;" horiz-adv-x="612" d="M76 518v197h461v-197h-461z" />
<glyph unicode="&#x2011;" horiz-adv-x="612" d="M76 518v197h461v-197h-461z" />
<glyph unicode="&#x2012;" horiz-adv-x="612" d="M76 518v197h461v-197h-461z" />
<glyph unicode="&#x2013;" horiz-adv-x="1021" d="M76 518v197h870v-197h-870z" />
<glyph unicode="&#x2014;" horiz-adv-x="1841" d="M76 518v197h1689v-197h-1689z" />
<glyph unicode="&#x2018;" horiz-adv-x="323" d="M37 1217v198l127 279h102l-90 -267h107v-210h-246z" />
<glyph unicode="&#x2019;" horiz-adv-x="321" d="M45 1434v211h246v-199l-129 -279h-101l91 267h-107z" />
<glyph unicode="&#x201a;" horiz-adv-x="342" d="M47 0v211h248v-199l-129 -280h-103l91 268h-107z" />
<glyph unicode="&#x201c;" horiz-adv-x="675" d="M37 1217v198l129 281h100l-90 -269h107v-210h-246zM389 1217v198l129 281h100l-90 -269h107v-210h-246z" />
<glyph unicode="&#x201d;" horiz-adv-x="673" d="M45 1434v211h246v-199l-129 -279h-101l91 267h-107zM397 1434v211h246v-199l-129 -279h-100l90 267h-107z" />
<glyph unicode="&#x201e;" horiz-adv-x="694" d="M47 0v211h246v-199l-129 -280h-101l91 268h-107zM399 0v211h246v-199l-129 -280h-100l90 268h-107z" />
<glyph unicode="&#x2022;" horiz-adv-x="724" d="M82 627q0 116 81.5 198t198.5 82q116 0 198.5 -82.5t82.5 -197.5q0 -117 -82.5 -199t-198.5 -82q-117 0 -198.5 82t-81.5 199z" />
<glyph unicode="&#x2026;" horiz-adv-x="1173" d="M51 0v238h273v-238h-273zM451 0v238h272v-238h-272zM848 0v238h274v-238h-274z" />
<glyph unicode="&#x202f;" horiz-adv-x="434" />
<glyph unicode="&#x2039;" horiz-adv-x="544" d="M18 627l330 465l158 -156l-232 -309l232 -314l-158 -153z" />
<glyph unicode="&#x203a;" horiz-adv-x="544" d="M39 313l231 314l-231 309l160 156l327 -465l-327 -467z" />
<glyph unicode="&#x205f;" horiz-adv-x="543" />
<glyph unicode="&#x20ac;" d="M43 621v184h92v59h-92v185h92v309q0 164 72.5 235.5t241.5 71.5h4q169 0 240 -70.5t71 -236.5v-162l-248 -10v192q0 44 -17.5 64t-45.5 20h-4q-28 0 -47 -19.5t-19 -64.5v-329h256v-185h-256v-59h256v-184h-256v-355q0 -45 19 -64.5t47 -19.5h8q65 0 65 84v201l248 -10 v-170q0 -165 -71.5 -236t-241.5 -71h-8q-170 0 -242 70.5t-72 236.5v334h-92z" />
<glyph unicode="&#x2122;" horiz-adv-x="1394" d="M43 1487v158h537v-158h-172v-666h-195v666h-170zM629 821v824h184l154 -449l155 449h183v-824h-195l4 350l-80 -286h-133l-82 289l6 -353h-196z" />
<glyph unicode="&#x25fc;" horiz-adv-x="1239" d="M0 0v1239h1239v-1239h-1239z" />
<glyph unicode="&#xfb03;" horiz-adv-x="1619" d="M14 1038v197h123v192q0 108 74 173t201 65q77 0 159 -29v-186q-66 12 -102 12q-84 0 -84 -73v-154h227h123v192q0 108 75 173t202 65q75 0 157 -29v-186q-66 12 -100 12q-86 0 -86 -73v-154h174v-197h-174v-1038h-248v1038h-12h-338v-1038h-248v1038h-123zM1286 0v1235 h248v-1235h-248zM1286 1366v211h248v-211h-248z" />
</font>
</defs>
</svg>
